<?xml version="1.0" encoding="UTF-8"?>
<svg id="Calque_2" data-name="Calque 2" xmlns="http://www.w3.org/2000/svg" viewBox="0 0 50 156.91">
  <defs>
    <style>
      .cls-1 {
        fill: #1d1d1b;
      }
    </style>
  </defs>
  <g id="Calque_1-2" data-name="Calque 1">
    <g>
      <path class="cls-1" d="M0,131.58H49.16v4.06H22.48l25.88,8.58v.03l-25.91,8.6h26.72v4.06H0v-.3l34.99-12.37L0,131.88v-.3Z"/>
      <path class="cls-1" d="M41.85,110.32v12.24l7.31,1.76v4.4L.06,116.56v-.24l49.1-12.16v4.4l-7.31,1.76Zm-6.48,1.57l-18.81,4.54,18.81,4.56v-9.1Z"/>
      <path class="cls-1" d="M1.04,101.29v-8.65c0-5.01,7.13-9.1,15.88-9.1s15.55,4.09,15.55,9.1v4.59h16.69v4.06H1.04Zm15.82-13.68c-4.6,0-8.33,2.26-8.33,5.04v4.59H24.99l.03-4.59c.03-2.78-3.64-5.04-8.15-5.04Z"/>
      <path class="cls-1" d="M1.04,80.32v-8.65c0-5.01,7.13-9.1,15.88-9.1s15.55,4.09,15.55,9.1v4.59h16.69v4.06H1.04Zm15.82-13.68c-4.6,0-8.33,2.26-8.33,5.04v4.59H24.99l.03-4.59c.03-2.78-3.64-5.04-8.15-5.04Z"/>
      <path class="cls-1" d="M1.04,59.36v-4.06H49.16v4.06H1.04Z"/>
      <path class="cls-1" d="M.93,29.53H50v.19L17.85,46.26h31.37v4.06H.21v-.21l32.09-16.51H.93v-4.07Z"/>
      <path class="cls-1" d="M26.66,0c14.3,0,23.31,5.58,23.31,12.3,0,7.52-11.16,13.49-24.81,13.49S.24,19.8,.24,12.45c.03-3.26,2.96-6.98,7.37-9.42l6.27,2.26c-3.7,2.02-6.03,4.75-6.03,7.2,0,4.72,7.34,9.18,17.31,9.18,9.43,0,17.19-4.03,17.19-9.54,0-4.44-5.04-7.78-12.39-7.78h-.15V12.35h-6.93V.11c1.1-.06,2.42-.11,3.76-.11Z"/>
    </g>
  </g>
</svg>