<?xml version="1.0" encoding="UTF-8"?>
<svg id="Calque_2" data-name="Calque 2" xmlns="http://www.w3.org/2000/svg" viewBox="0 0 50 156.91">
  <defs>
    <style>
      .cls-1 {
        fill: #1d1d1b;
      }
    </style>
  </defs>
  <g id="Calque_1-2" data-name="Calque 1">
    <g>
      <path class="cls-1" d="M0,107.59H49.19v7.9H22.49l25.9,16.71v.06l-25.93,16.74h26.73v7.9H0v-.59l35.01-24.08L0,108.19v-.59Z"/>
      <path class="cls-1" d="M1.05,97.91v-7.9H49.19v7.9H1.05Z"/>
      <path class="cls-1" d="M40.74,83.23l-4.27-6.25c3.76-2.25,5.91-6.43,5.91-11.27,0-5.65-2.6-9.93-6.27-9.93-4.45,0-7.14,6.62-9.56,12.49-2.51,5.9-5.44,12.46-12.99,12.46S.18,73.58,.18,64.52c0-7.18,3.32-12.55,8.6-14.62l3.88,5.87c-3.26,1.56-5.08,5.03-5.08,8.68,0,4.62,2.75,8.31,6.15,8.31,3.76,0,5.11-4.65,7.62-10.77,3.35-7.96,7.02-14.15,14.61-14.15,8.54,0,14.04,7.75,14.04,17.96,0,8.28-3.7,14.55-9.26,17.43Z"/>
      <path class="cls-1" d="M25.15,43.47C11.59,43.47,.21,31.64,.21,17.49,.3,10.96,2.96,4.93,7.56,0l5.94,4.59c-3.38,3.53-5.62,8.12-5.62,13.05,0,9.12,7.65,17.83,17.29,17.83s17.2-8.84,17.2-17.86c0-5.15-2.45-9.59-5.73-13.05L42.74,0c4.09,4.34,7.23,9.87,7.23,17.36,0,14.27-11.23,26.11-24.82,26.11Z"/>
    </g>
  </g>
</svg>