<?xml version="1.0" encoding="UTF-8"?>
<svg id="Calque_2" data-name="Calque 2" xmlns="http://www.w3.org/2000/svg" viewBox="0 0 50 156.91">
  <defs>
    <style>
      .cls-1 {
        fill: #1d1d1b;
      }
    </style>
  </defs>
  <g id="Calque_1-2" data-name="Calque 1">
    <g>
      <path class="cls-1" d="M.84,156.91v-8.42c0-4.88,7.16-8.86,15.93-8.86s15.6,3.98,15.6,8.86v4.47h16.74v3.95H.84Zm15.87-13.33c-4.61,0-8.35,2.2-8.35,4.91v4.47H24.85l.03-4.47c.03-2.7-3.65-4.91-8.17-4.91Z"/>
      <path class="cls-1" d="M49.1,122.64l-18.68,6.78v3.09h18.68v3.95l-48.26,.02v-7.83c0-4.69,6.92-8.53,15.51-8.53,6.23,0,11.65,2.09,13.44,4.98l19.31-7.33v4.86Zm-24.97,5.92c.03-2.38-3.65-4.36-7.96-4.36s-7.81,2.02-7.81,4.36v3.97h15.78v-3.97Z"/>
      <path class="cls-1" d="M25.03,116.33c-13.77,0-25.03-5.84-25.03-13.02s11.26-13.03,25.03-13.03,24.85,5.88,24.85,13.05-11.2,13-24.85,13Zm-.06-22.05c-9.55,0-17.34,4.08-17.34,9.05s7.78,9.02,17.34,9.02,17.25-4.05,17.25-9.02-7.75-9.05-17.25-9.05Z"/>
      <path class="cls-1" d="M25.03,66.5c14.82,0,24.07,4.98,24.07,12.98v7.17H.84v-7.17c-.03-8,9.25-12.98,24.19-12.98Zm-.03,4c-10.24,0-16.65,3.47-16.65,9v3.22H41.56v-3.27c0-5.5-6.38-8.95-16.56-8.95Z"/>
      <path class="cls-1" d="M30.81,63.11H.84v-3.97H30.78c6.68,0,11.56-2.45,11.56-5.53s-4.88-5.56-11.56-5.56H.84v-3.98H30.81c11.08,0,19.19,4.17,19.19,9.53s-8.11,9.52-19.19,9.52Z"/>
      <path class="cls-1" d="M25,40.67C11.41,40.67,0,34.75,0,27.67c.09-3.27,2.75-6.28,7.37-8.75l5.96,2.3c-3.38,1.77-5.63,4.06-5.63,6.53,0,4.56,7.66,8.92,17.34,8.92s17.25-4.42,17.25-8.94c0-2.58-2.46-4.8-5.75-6.53l6.11-2.28c4.1,2.17,7.25,4.94,7.25,8.69,0,7.14-11.26,13.06-24.88,13.06Z"/>
      <path class="cls-1" d="M8.35,0V6.75H49.1v3.97H8.35v6.75H.84V0h7.51Z"/>
    </g>
  </g>
</svg>