<?xml version="1.0" encoding="UTF-8"?>
<svg id="Calque_2" data-name="Calque 2" xmlns="http://www.w3.org/2000/svg" viewBox="0 0 50 156.91">
  <defs>
    <style>
      .cls-1 {
        fill: #1d1d1b;
      }
    </style>
  </defs>
  <g id="Calque_1-2" data-name="Calque 1">
    <g>
      <path class="cls-1" d="M.84,123.9l49.16,16.35v.37L.84,156.91v-5.91l32.61-10.55L.84,129.86v-5.95Z"/>
      <path class="cls-1" d="M8.28,114.41h12.34v-13.4h7.53v13.4h13.33v-15.53h7.53v21.09H.84v-21.09h7.44v15.53Z"/>
      <path class="cls-1" d="M24.96,94.79c-13.57,0-24.96-8.33-24.96-18.28,.09-4.59,2.75-8.83,7.35-12.3l5.95,3.23c-3.38,2.48-5.62,5.71-5.62,9.18,0,6.42,7.65,12.55,17.3,12.55s17.21-6.22,17.21-12.57c0-3.63-2.45-6.75-5.74-9.18l6.1-3.21c4.09,3.05,7.23,6.94,7.23,12.22,0,10.04-11.24,18.37-24.84,18.37Z"/>
      <path class="cls-1" d="M8.34,37.6v9.49H49.01v5.58H8.34v9.49H.84v-24.57h7.5Z"/>
      <path class="cls-1" d="M24.99,36.63C11.24,36.63,0,28.41,0,18.33S11.24,0,24.99,0s24.81,8.26,24.81,18.35-11.18,18.28-24.81,18.28Zm-.06-31c-9.53,0-17.3,5.73-17.3,12.72s7.77,12.68,17.3,12.68,17.21-5.69,17.21-12.68-7.74-12.72-17.21-12.72Z"/>
    </g>
  </g>
</svg>