<?xml version="1.0" encoding="UTF-8"?>
<svg id="Calque_2" data-name="Calque 2" xmlns="http://www.w3.org/2000/svg" viewBox="0 0 50 156.91">
  <defs>
    <style>
      .cls-1 {
        fill: #1d1d1b;
      }
    </style>
  </defs>
  <g id="Calque_1-2" data-name="Calque 1">
    <g>
      <path class="cls-1" d="M.84,156.91v-11.61c0-6.72,7.17-12.22,15.97-12.22s15.64,5.49,15.64,12.22v6.16h16.78v5.45H.84Zm15.91-18.38c-4.62,0-8.37,3.04-8.37,6.76v6.16H24.91l.03-6.16c.03-3.73-3.66-6.76-8.19-6.76Z"/>
      <path class="cls-1" d="M.84,102.83H49.22v5.45H28.78v15.04h20.44v5.43H.84v-5.43H21.25v-15.04H.84v-5.45Z"/>
      <path class="cls-1" d="M25.09,97.81c-13.81,0-25.09-8.06-25.09-17.95s11.28-17.97,25.09-17.97,24.91,8.1,24.91,17.99-11.22,17.92-24.91,17.92Zm-.06-30.4c-9.57,0-17.38,5.62-17.38,12.47s7.8,12.43,17.38,12.43,17.29-5.58,17.29-12.43-7.77-12.47-17.29-12.47Z"/>
      <path class="cls-1" d="M8.37,36.86v9.31H49.22v5.47H8.37v9.31H.84v-24.09h7.53Z"/>
      <path class="cls-1" d="M25.09,35.91C11.28,35.91,0,27.86,0,17.97S11.28,0,25.09,0s24.91,8.1,24.91,17.99-11.22,17.92-24.91,17.92Zm-.06-30.4c-9.57,0-17.38,5.62-17.38,12.47s7.8,12.43,17.38,12.43,17.29-5.58,17.29-12.43-7.77-12.47-17.29-12.47Z"/>
    </g>
  </g>
</svg>